<?xml version="1.0" standalone="no"?>
<!DOCTYPE svg PUBLIC "-//W3C//DTD SVG 20010904//EN"
 "http://www.w3.org/TR/2001/REC-SVG-20010904/DTD/svg10.dtd">
<svg version="1.0" xmlns="http://www.w3.org/2000/svg"
 width="275.000000pt" height="183.000000pt" viewBox="0 0 275.000000 183.000000"
 preserveAspectRatio="xMidYMid meet">

<g transform="translate(0.000000,183.000000) scale(0.100000,-0.100000)"
fill="#000000" stroke="none">
<path d="M322 778 l-2 -378 539 0 539 0 273 278 c273 277 432 442 393 410 -30
-26 -190 -26 -197 0 -2 9 -2 -8 1 -38 6 -72 -11 -132 -51 -177 -44 -50 -104
-74 -198 -80 l-79 -6 0 -99 0 -99 -157 3 -157 3 -14 47 c-13 46 -13 46 -45 37
-41 -12 -113 -12 -154 0 -33 9 -33 9 -46 -37 l-14 -47 -98 -3 -97 -3 6 24 6
24 -53 -26 c-45 -22 -65 -26 -142 -25 -88 0 -191 26 -219 54 -7 7 0 31 21 74
l32 64 43 -21 c59 -29 168 -36 192 -12 9 10 16 27 14 39 -3 21 -16 27 -162 81
-103 37 -166 127 -152 214 4 25 3 30 -3 16 -7 -17 -10 -13 -13 20 -3 22 -5
-130 -6 -337z"/>
<path d="M1352 1108 c-2 -38 -2 -38 -47 -38 -31 0 -47 5 -55 18 -15 23 -14 19
50 -157 l55 -152 3 91 c3 93 -2 304 -6 238z"/>
<path d="M788 1095 c-13 -29 -15 -30 -61 -10 -20 8 -44 15 -54 14 -10 0 -2 -6
17 -12 33 -11 29 -12 -54 -15 -65 -2 -92 1 -98 10 -5 9 -8 6 -8 -9 0 -29 26
-45 127 -81 99 -35 145 -65 172 -112 l20 -35 11 30 c47 122 90 239 90 244 -1
3 -8 -6 -16 -21 -14 -26 -19 -28 -79 -28 -69 0 -71 1 -55 31 6 10 8 19 5 19
-3 0 -11 -11 -17 -25z"/>
<path d="M593 1103 c9 -2 25 -2 35 0 9 3 1 5 -18 5 -19 0 -27 -2 -17 -5z"/>
<path d="M1540 1020 l0 -80 34 0 c73 0 116 30 116 82 0 27 -26 68 -43 68 -7 0
-6 -4 3 -10 11 -7 -2 -10 -42 -10 -67 0 -78 17 -15 23 l42 4 -47 1 -48 2 0
-80z"/>
<path d="M1086 1010 c-16 -40 -55 -175 -51 -178 9 -9 91 -12 103 -4 10 6 6 29
-17 103 -17 54 -32 88 -35 79z"/>
<path d="M1649 503 c-13 -16 -12 -17 4 -4 16 13 21 21 13 21 -2 0 -10 -8 -17
-17z"/>
<path d="M1747 477 c4 -28 1 -42 -12 -57 -21 -24 -13 -27 9 -4 18 17 21 61 6
84 -6 10 -8 3 -3 -23z"/>
<path d="M1672 463 c1 -37 1 -37 5 -6 3 19 11 34 21 36 12 3 10 5 -5 6 -20 1
-23 -3 -21 -36z"/>
<path d="M1631 465 c-1 -24 25 -65 41 -65 7 0 4 6 -5 13 -10 6 -21 26 -26 42
-7 21 -10 24 -10 10z"/>
<path d="M1709 463 c-13 -16 -12 -17 4 -4 16 13 21 21 13 21 -2 0 -10 -8 -17
-17z"/>
</g>
</svg>
